<svg width="24" height="24" viewBox="0 0 24 24" fill="none" xmlns="http://www.w3.org/2000/svg">
<path d="M4 1.5H20V-1.5H4V1.5ZM22.5 4V20H25.5V4H22.5ZM20 22.5H4V25.5H20V22.5ZM1.5 20V4H-1.5V20H1.5ZM4 22.5C2.61929 22.5 1.5 21.3807 1.5 20H-1.5C-1.5 23.0376 0.962435 25.5 4 25.5V22.5ZM22.5 20C22.5 21.3807 21.3807 22.5 20 22.5V25.5C23.0376 25.5 25.5 23.0376 25.5 20H22.5ZM20 1.5C21.3807 1.5 22.5 2.61929 22.5 4H25.5C25.5 0.962434 23.0376 -1.5 20 -1.5V1.5ZM4 -1.5C0.962434 -1.5 -1.5 0.962435 -1.5 4H1.5C1.5 2.61929 2.61929 1.5 4 1.5V-1.5Z" fill="#949494"/>
</svg>
